<mxfile host="app.diagrams.net" modified="2024-01-31T10:58:09.218Z" agent="Mozilla/5.0 (Windows NT 10.0; Win64; x64) AppleWebKit/537.36 (KHTML, like Gecko) Chrome/120.0.0.0 Safari/537.36" version="23.0.2" etag="O-Y7Fb7xqkaXwjWZq0uu" type="github">
  <diagram name="Page-1" id="ea4Pu58EXvnMgfxYT3__">
    <mxGraphModel>
      <root>
        <mxCell id="0" />
        <mxCell id="1" parent="0" />
      </root>
    </mxGraphModel>
  </diagram>
</mxfile>
